%TF.GenerationSoftware,KiCad,Pcbnew,10.0.3*%
%TF.CreationDate,2026-06-20T22:09:30+02:00*%
%TF.ProjectId,marybarypedak,6d617279-6261-4727-9970-6564616b2e6b,rev?*%
%TF.SameCoordinates,Original*%
%TF.FileFunction,Soldermask,Bot*%
%TF.FilePolarity,Negative*%
%FSLAX46Y46*%
G04 Gerber Fmt 4.6, Leading zero omitted, Abs format (unit mm)*
G04 Created by KiCad (PCBNEW 10.0.3) date 2026-06-20 22:09:30*
%MOMM*%
%LPD*%
G01*
G04 APERTURE LIST*
G04 Aperture macros list*
%AMRoundRect*
0 Rectangle with rounded corners*
0 $1 Rounding radius*
0 $2 $3 $4 $5 $6 $7 $8 $9 X,Y pos of 4 corners*
0 Add a 4 corners polygon primitive as box body*
4,1,4,$2,$3,$4,$5,$6,$7,$8,$9,$2,$3,0*
0 Add four circle primitives for the rounded corners*
1,1,$1+$1,$2,$3*
1,1,$1+$1,$4,$5*
1,1,$1+$1,$6,$7*
1,1,$1+$1,$8,$9*
0 Add four rect primitives between the rounded corners*
20,1,$1+$1,$2,$3,$4,$5,0*
20,1,$1+$1,$4,$5,$6,$7,0*
20,1,$1+$1,$6,$7,$8,$9,0*
20,1,$1+$1,$8,$9,$2,$3,0*%
G04 Aperture macros list end*
%ADD10C,2.340000*%
%ADD11C,1.600000*%
%ADD12RoundRect,0.250001X-0.949999X-0.949999X0.949999X-0.949999X0.949999X0.949999X-0.949999X0.949999X0*%
%ADD13C,2.400000*%
%ADD14C,3.000000*%
%ADD15C,1.500000*%
%ADD16R,1.050000X1.500000*%
%ADD17O,1.050000X1.500000*%
G04 APERTURE END LIST*
D10*
%TO.C,RV1*%
X212000000Y-74000000D03*
X207000000Y-76500000D03*
X202000000Y-74000000D03*
%TD*%
%TO.C,RV2*%
X165000000Y-73000000D03*
X167500000Y-78000000D03*
X165000000Y-83000000D03*
%TD*%
D11*
%TO.C,R2*%
X193080000Y-60500000D03*
X182920000Y-60500000D03*
%TD*%
D12*
%TO.C,J3*%
X172000000Y-53500000D03*
D13*
X175500000Y-53500000D03*
%TD*%
D14*
%TO.C,J2*%
X211000000Y-82500000D03*
X201470000Y-86940000D03*
%TD*%
%TO.C,J1*%
X158665000Y-56650000D03*
X163105000Y-66180000D03*
%TD*%
D15*
%TO.C,C3*%
X207500000Y-64500000D03*
X212500000Y-64500000D03*
%TD*%
D11*
%TO.C,R4*%
X168420000Y-61500000D03*
X178580000Y-61500000D03*
%TD*%
%TO.C,R1*%
X197580000Y-55500000D03*
X187420000Y-55500000D03*
%TD*%
%TO.C,R8*%
X196500000Y-89080000D03*
X196500000Y-78920000D03*
%TD*%
D15*
%TO.C,C5*%
X188000000Y-72500000D03*
X193000000Y-72500000D03*
%TD*%
D11*
%TO.C,R10*%
X184080000Y-72500000D03*
X173920000Y-72500000D03*
%TD*%
%TO.C,R7*%
X182840000Y-79000000D03*
X193000000Y-79000000D03*
%TD*%
%TO.C,R5*%
X204840000Y-60500000D03*
X215000000Y-60500000D03*
%TD*%
D15*
%TO.C,C4*%
X183000000Y-68500000D03*
X178000000Y-68500000D03*
%TD*%
%TO.C,C1*%
X167500000Y-66000000D03*
X172500000Y-66000000D03*
%TD*%
D16*
%TO.C,Q1*%
X181230000Y-55860000D03*
D17*
X182500000Y-55860000D03*
X183770000Y-55860000D03*
%TD*%
D11*
%TO.C,R3*%
X182420000Y-64000000D03*
X192580000Y-64000000D03*
%TD*%
D15*
%TO.C,C7*%
X187500000Y-83000000D03*
X192500000Y-83000000D03*
%TD*%
D11*
%TO.C,R9*%
X183080000Y-83000000D03*
X172920000Y-83000000D03*
%TD*%
D15*
%TO.C,C6*%
X196500000Y-69000000D03*
X196500000Y-64000000D03*
%TD*%
%TO.C,C2*%
X196500000Y-60500000D03*
X201500000Y-60500000D03*
%TD*%
D11*
%TO.C,R6*%
X201920000Y-69000000D03*
X212080000Y-69000000D03*
%TD*%
M02*
