M48
; DRILL file KiCad 10.0.3 date 2026-06-20T22:09:35
; FORMAT={-:-/ absolute / metric / decimal}
; #@! TF.CreationDate,2026-06-20T22:09:35+02:00
; #@! TF.GenerationSoftware,Kicad,Pcbnew,10.0.3
; #@! TF.FileFunction,Plated,1,2,PTH
FMAT,2
METRIC
; #@! TA.AperFunction,Plated,PTH,ComponentDrill
T1C0.750
; #@! TA.AperFunction,Plated,PTH,ComponentDrill
T2C0.800
; #@! TA.AperFunction,Plated,PTH,ComponentDrill
T3C1.200
; #@! TA.AperFunction,Plated,PTH,ComponentDrill
T4C1.300
%
G90
G05
T1
X167.5Y-66.0
X172.5Y-66.0
X178.0Y-68.5
X181.23Y-55.86
X182.5Y-55.86
X183.0Y-68.5
X183.77Y-55.86
X187.5Y-83.0
X188.0Y-72.5
X192.5Y-83.0
X193.0Y-72.5
X196.5Y-60.5
X196.5Y-64.0
X196.5Y-69.0
X201.5Y-60.5
X207.5Y-64.5
X212.5Y-64.5
T2
X168.42Y-61.5
X172.92Y-83.0
X173.92Y-72.5
X178.58Y-61.5
X182.42Y-64.0
X182.84Y-79.0
X182.92Y-60.5
X183.08Y-83.0
X184.08Y-72.5
X187.42Y-55.5
X192.58Y-64.0
X193.0Y-79.0
X193.08Y-60.5
X196.5Y-78.92
X196.5Y-89.08
X197.58Y-55.5
X201.92Y-69.0
X204.84Y-60.5
X212.08Y-69.0
X215.0Y-60.5
T3
X158.665Y-56.65
X163.105Y-66.18
X172.0Y-53.5
X175.5Y-53.5
X201.47Y-86.94
X211.0Y-82.5
T4
X165.0Y-73.0
X165.0Y-83.0
X167.5Y-78.0
X202.0Y-74.0
X207.0Y-76.5
X212.0Y-74.0
M30
